<?xml version="1.0" encoding="UTF-8"?>
<svg id="Layer_2" data-name="Layer 2" xmlns="http://www.w3.org/2000/svg" width="276.44" height="175.74" viewBox="0 0 276.44 175.74">
  <defs>
    <style>
      .cls-1 {
        fill: #fc0;
      }

      .cls-2 {
        fill: #0cf;
      }

      .cls-3 {
        fill: #f06;
      }
    </style>
  </defs>
  <g id="Layer_1-2" data-name="Layer 1">
    <path d="M103.47,1.42l27.15,27.08L157.76,1.42v52.28h-12.58v-23.21l-14.57,14.78-14.57-14.78v23.21h-12.58V1.42Z"/>
    <polygon points="16.85 15.49 39.17 15.49 39.17 3.34 3.35 3.34 3.35 53.7 16.85 53.7 16.85 15.49"/>
    <polygon points="54.68 53.7 69 24.52 83.32 53.7 96.47 53.7 69 0 41.14 53.7 54.68 53.7"/>
    <g>
      <path d="M1.94,68.73h14.25c13.75,0,23.25,9.5,23.25,21.81v.12c0,12.31-9.5,21.81-23.25,21.81H1.94v-43.75ZM16.25,110.55c12.56,0,21-8.75,21-19.81v-.12c0-11.06-8.44-19.94-21.06-19.94H4.06v39.88h12.19Z"/>
      <path d="M46.75,68.48h2.69v3.81h-2.69v-3.81ZM47.06,80.98h2.06v31.5h-2.06v-31.5Z"/>
      <path d="M57.25,108.42l1.19-1.56c3.5,2.75,7.69,4.31,11.75,4.31,5.06,0,9-2.69,9-6.56v-.12c0-4.44-4.75-5.81-9.56-7.12-5.88-1.69-10.94-3.31-10.94-8.56v-.12c0-4.69,4.31-8.25,10.75-8.25,3.62,0,7.75,1.25,11.06,3.5l-1.12,1.69c-3-2.12-6.69-3.31-10-3.31-5.19,0-8.62,2.69-8.62,6.19v.12c0,3.94,4.44,5.38,9.56,6.81,5.75,1.56,10.94,3.38,10.94,8.88v.12c0,5.19-4.88,8.62-11.19,8.62-4.5,0-9.38-1.75-12.81-4.62Z"/>
      <path d="M87.56,96.8v-.12c0-8.88,7-16.44,16.12-16.44,5.81,0,9.5,2.62,12.56,5.81l-1.44,1.44c-2.75-2.94-6.19-5.38-11.19-5.38-7.94,0-13.94,6.56-13.94,14.5v.12c0,7.94,6.19,14.62,14.06,14.62,5,0,8.56-2.56,11.31-5.62l1.44,1.25c-3.06,3.56-7,6.25-12.88,6.25-9.06,0-16.06-7.5-16.06-16.44Z"/>
      <path d="M121.88,96.86v-.12c0-8.81,6.69-16.5,16.38-16.5s16.25,7.56,16.25,16.38v.12c0,8.81-6.62,16.5-16.31,16.5s-16.31-7.56-16.31-16.38ZM152.38,96.8v-.12c0-7.94-6.06-14.56-14.25-14.56s-14.06,6.62-14.06,14.56v.12c0,7.94,6,14.56,14.19,14.56s14.12-6.62,14.12-14.56Z"/>
      <path d="M157.82,80.98h2.31l12.94,29.31,13-29.31h2.19l-14.38,31.75h-1.62l-14.44-31.75Z"/>
      <path d="M189.44,96.73v-.12c0-9.25,6.38-16.38,15.06-16.38,9.5,0,14.44,8.12,14.44,16.56v.69h-27.31c.38,8.56,6.44,13.88,13.5,13.88,4.88,0,8.81-2.56,11.31-5.81l1.5,1.19c-2.88,3.75-7.12,6.5-12.88,6.5-8.5,0-15.62-6.44-15.62-16.5ZM216.75,95.67c-.31-6.88-4.5-13.56-12.38-13.56-7.12,0-12.38,5.81-12.75,13.56h25.12Z"/>
      <path d="M225.57,80.98h2v9.62c1.88-5.38,6.69-10.44,13.38-10.25v2.06h-.31c-7.62,0-13.06,7.38-13.06,15.12v14.94h-2v-31.5Z"/>
      <path d="M245.94,121.11l.81-1.69c1.5.81,3.31,1.38,5.31,1.38,3.5,0,5.56-1.69,8.56-8.38l-15.12-31.44h2.25l13.88,29.31,12.69-29.31h2.12l-14.19,32.31c-3.31,7.5-6,9.38-10.25,9.38-2.31,0-4.38-.69-6.06-1.56Z"/>
      <path d="M0,153.24v-.12c0-12.31,9.12-22.62,21.62-22.62,8.12,0,12.56,3,16.81,6.94l-1.5,1.56c-3.62-3.5-8.06-6.56-15.38-6.56-11.12,0-19.38,9.31-19.38,20.62v.12c0,11.31,8.38,20.62,19.44,20.62,6.81,0,11.69-3,15.56-7l1.5,1.44c-4.12,4.19-9.44,7.5-17.19,7.5-12.38,0-21.5-10.06-21.5-22.5Z"/>
      <path d="M43.19,159.24v-.12c0-9.25,6.38-16.38,15.06-16.38,9.5,0,14.44,8.12,14.44,16.56v.69h-27.31c.38,8.56,6.44,13.88,13.5,13.88,4.88,0,8.81-2.56,11.31-5.81l1.5,1.19c-2.88,3.75-7.12,6.5-12.88,6.5-8.5,0-15.62-6.44-15.62-16.5ZM70.5,158.17c-.31-6.88-4.5-13.56-12.38-13.56-7.12,0-12.38,5.81-12.75,13.56h25.12Z"/>
      <path d="M80.25,143.49h2v7.5c1.44-3.75,5.38-8.25,12.12-8.25,8.31,0,13,5.62,13,13.81v18.44h-2v-18.12c0-7.31-3.94-12.25-11.25-12.25-6.62,0-11.88,5.44-11.88,12.62v17.75h-2v-31.5Z"/>
      <path d="M118.19,166.92v-21.62h-4.81v-1.81h4.81v-10.56h2v10.56h11.44v1.81h-11.44v21.44c0,4.62,2.44,6.94,6.56,6.94,1.56,0,3.12-.38,4.75-1.12v1.94c-1.56.75-3.19,1.06-4.94,1.06-5.06,0-8.38-2.94-8.38-8.62Z"/>
      <path d="M135.82,159.24v-.12c0-9.25,6.38-16.38,15.06-16.38,9.5,0,14.44,8.12,14.44,16.56v.69h-27.31c.38,8.56,6.44,13.88,13.5,13.88,4.88,0,8.81-2.56,11.31-5.81l1.5,1.19c-2.88,3.75-7.12,6.5-12.88,6.5-8.5,0-15.62-6.44-15.62-16.5ZM163.13,158.17c-.31-6.88-4.5-13.56-12.38-13.56-7.12,0-12.38,5.81-12.75,13.56h25.12Z"/>
      <path d="M172.57,143.49h2v9.62c1.88-5.38,6.69-10.44,13.38-10.25v2.06h-.31c-7.62,0-13.06,7.38-13.06,15.12v14.94h-2v-31.5Z"/>
    </g>
    <polygon class="cls-2" points="130.62 16.56 137.47 3.34 123.85 3.34 130.62 16.56"/>
    <polygon class="cls-3" points="21.08 31.82 34.3 38.68 34.3 25.06 21.08 31.82"/>
    <polygon class="cls-1" points="68.91 53.7 75.76 40.48 62.15 40.48 68.91 53.7"/>
    <g>
      <path d="M170.08,2.66h4.39v4.83h-4.39V2.66ZM170.51,17.07h3.53v36.74h-3.53V17.07Z"/>
      <path d="M187,1.22h3.53v52.59h-3.53V1.22Z"/>
      <path d="M200.54,63.97l1.22-3.1c1.95.94,3.53,1.37,6.27,1.37,3.82,0,6.34-2.23,9.08-8.64l-17.65-36.52h4.11l15.27,32.85,13.25-32.85h3.89l-15.92,38.04c-3.24,7.71-6.99,10.45-12.25,10.45-2.81,0-4.83-.5-7.28-1.58Z"/>
    </g>
  </g>
</svg>